HIERARCHY
ROOT SpineBase
{
  OFFSET 0.000000 0.000000 0.000000
  CHANNELS 6 Xposition Yposition Zposition Zrotation Xrotation Yrotation
  JOINT SpineMid
  {
    OFFSET 0.000000 32.146355 0.000000
    CHANNELS 3 Zrotation Xrotation Yrotation
    JOINT SpineShoulder
    {
      OFFSET 0.322510 23.911772 -0.851805
      CHANNELS 3 Zrotation Xrotation Yrotation
      JOINT Neck
      {
        OFFSET 0.200837 7.921245 -0.635845
        CHANNELS 3 Zrotation Xrotation Yrotation
        JOINT Head
        {
          OFFSET 7.157778 9.379659 4.327229
          CHANNELS 3 Zrotation Xrotation Yrotation
          End Site
          {
            OFFSET 0 0 0
          }
        }
      }
      JOINT ShoulderLeft
      {
        OFFSET -3.081239 -3.672870 -13.807869
        CHANNELS 3 Zrotation Xrotation Yrotation
        JOINT ElbowLeft
        {
          OFFSET -4.098716 -24.938044 -5.975474
          CHANNELS 3 Zrotation Xrotation Yrotation
          JOINT WristLeft
          {
            OFFSET 1.177351 -19.058131 -1.291231
            CHANNELS 3 Zrotation Xrotation Yrotation
            JOINT HandLeft
            {
              OFFSET 0.329341 -8.618114 1.300140
              CHANNELS 3 Zrotation Xrotation Yrotation
              JOINT HandTipLeft
              {
                OFFSET 0.030625 -5.821220 -1.120112
                CHANNELS 3 Zrotation Xrotation Yrotation
                End Site
                {
                  OFFSET 0 0 0
                }
              }
              JOINT ThumbLeft
              {
                OFFSET 1.935183 -0.454638 -1.795308
                CHANNELS 3 Zrotation Xrotation Yrotation
                End Site
                {
                  OFFSET 0 0 0
                }
              }
            }
          }
        }
      }
      JOINT ShoulderRight
      {
        OFFSET 2.881276 -2.670469 16.944288
        CHANNELS 3 Zrotation Xrotation Yrotation
        JOINT ElbowRight
        {
          OFFSET -17.784780 -7.535834 -0.118434
          CHANNELS 3 Zrotation Xrotation Yrotation
          JOINT WristRight
          {
            OFFSET 4.688638 -16.482749 8.344531
            CHANNELS 3 Zrotation Xrotation Yrotation
            JOINT HandRight
            {
              OFFSET 1.445669 2.921603 8.398116
              CHANNELS 3 Zrotation Xrotation Yrotation
              JOINT HandTipRight
              {
                OFFSET 2.882082 -4.707682 5.705177
                CHANNELS 3 Zrotation Xrotation Yrotation
                End Site
                {
                  OFFSET 0 0 0
                }
              }
              JOINT ThumbRight
              {
                OFFSET -6.062355 -5.261774 -4.759297
                CHANNELS 3 Zrotation Xrotation Yrotation
                End Site
                {
                  OFFSET 0 0 0
                }
              }
            }
          }
        }
      }
    }
  }
  JOINT HipLeft
  {
    OFFSET -0.473395 1.893834 -10.352001
    CHANNELS 3 Zrotation Xrotation Yrotation
    JOINT KneeLeft
    {
      OFFSET -8.140472 -36.036651 4.124643
      CHANNELS 3 Zrotation Xrotation Yrotation
      JOINT AnkleLeft
      {
        OFFSET -10.152143 -32.038624 3.563868
        CHANNELS 3 Zrotation Xrotation Yrotation
        JOINT FootLeft
        {
          OFFSET 0.909243 -6.749116 0.798862
          CHANNELS 3 Zrotation Xrotation Yrotation
          End Site
          {
            OFFSET 0 0 0
          }
        }
      }
    }
  }
  JOINT HipRight
  {
    OFFSET 2.244995 0.257516 2.899010
    CHANNELS 3 Zrotation Xrotation Yrotation
    JOINT KneeRight
    {
      OFFSET -1.078400 -36.014787 14.042267
      CHANNELS 3 Zrotation Xrotation Yrotation
      JOINT AnkleRight
      {
        OFFSET -12.420836 -32.674354 -1.485257
        CHANNELS 3 Zrotation Xrotation Yrotation
        JOINT FootRight
        {
          OFFSET -3.054931 -4.932509 -8.245381
          CHANNELS 3 Zrotation Xrotation Yrotation
          End Site
          {
            OFFSET 0 0 0
          }
        }
      }
    }
  }
}
MOTION
Frames: 6
Frame Time: 0.033333
-67.542581 75.149783 312.333020 -0.000000 0.000000 -78.406854 0.000000 -0.000000 78.406854 -0.000000 0.000000 0.000000 -0.000000 0.000000 0.000000 0.000000 0.000000 0.000000 -0.000000 0.000000 0.000000 -0.000000 0.000000 0.000000 -0.000000 0.000000 0.000000 -0.000000 0.000000 0.000000 0.000000 0.000000 0.000000 0.000000 0.000000 0.000000 -0.000000 0.000000 0.000000 -0.000000 0.000000 0.000000 -0.000000 0.000000 0.000000 -0.000000 0.000000 0.000000 0.000000 0.000000 0.000000 0.000000 0.000000 0.000000 0.000000 -0.000000 78.406854 -0.000000 0.000000 0.000000 -0.000000 0.000000 0.000000 0.000000 0.000000 0.000000 0.000000 -0.000000 78.406854 -0.000000 0.000000 0.000000 -0.000000 0.000000 0.000000 0.000000 0.000000 0.000000
-67.630138 75.034696 312.396252 -0.176652 -0.064137 -78.067634 -0.026227 0.186096 78.067578 -0.000000 0.000000 0.000000 -0.000000 0.000000 0.000000 0.000000 0.000000 0.000000 1.179994 -0.726246 -0.156411 0.524320 0.317564 0.015071 -1.706187 0.405893 0.146825 -1.344322 -6.777498 0.145042 0.000000 0.000000 0.000000 0.000000 0.000000 0.000000 -0.000000 0.000000 0.000000 -0.000000 0.000000 0.000000 -0.000000 0.000000 0.000000 -0.000000 0.000000 0.000000 0.000000 0.000000 0.000000 0.000000 0.000000 0.000000 -0.026227 0.186096 78.067578 -0.000000 0.000000 0.000000 2.306286 -5.506364 -0.355459 0.000000 0.000000 0.000000 -0.026227 0.186096 78.067578 -0.000000 0.000000 0.000000 12.167747 -2.455326 -20.524674 0.000000 0.000000 0.000000
-67.726541 74.927378 312.452421 -0.349639 -0.118415 -77.787164 -0.041770 0.366776 77.786937 -0.000000 0.000000 0.000000 -0.000000 0.000000 0.000000 0.000000 0.000000 0.000000 2.273109 -1.305068 -0.306173 0.905386 0.512450 0.043056 -3.184915 0.782611 0.286305 -1.934618 -11.857733 0.110986 0.000000 0.000000 0.000000 0.000000 0.000000 0.000000 -0.000000 0.000000 0.000000 -0.000000 0.000000 0.000000 -0.000000 0.000000 0.000000 -0.000000 0.000000 0.000000 0.000000 0.000000 0.000000 0.000000 0.000000 0.000000 -0.041770 0.366776 77.786937 -0.000000 0.000000 0.000000 3.930021 -9.409862 -0.474800 0.000000 0.000000 0.000000 -0.041770 0.366776 77.786937 -0.000000 0.000000 0.000000 21.908840 -8.455184 -38.400577 0.000000 0.000000 0.000000
-67.831790 74.827831 312.501528 -0.519124 -0.162941 -77.565595 -0.047337 0.542032 77.565080 -0.000000 0.000000 0.000000 -0.925150 -0.125848 0.518902 0.000000 0.000000 0.000000 3.273656 -1.731532 -0.454307 1.189746 0.573866 0.089267 -4.475611 1.137550 0.418844 -1.914854 -15.678750 0.022413 0.000000 0.000000 0.000000 0.000000 0.000000 0.000000 -0.000000 0.000000 0.000000 -0.000000 0.000000 0.000000 -0.000000 0.000000 0.000000 -0.000000 0.000000 0.000000 0.000000 0.000000 0.000000 0.000000 0.000000 0.000000 -0.047337 0.542032 77.565080 -0.000000 0.000000 0.000000 5.049099 -12.097181 -0.493314 0.000000 0.000000 0.000000 0.057008 1.311648 77.863406 -0.774351 -0.059794 -0.300417 27.019323 -14.007314 -49.249008 0.000000 0.000000 0.000000
-67.945885 74.736053 312.543573 -0.685262 -0.197807 -77.403025 -0.043588 0.711906 77.402113 -0.000000 0.000000 0.000000 -1.084727 -0.165733 0.621270 0.000000 0.000000 0.000000 4.177051 -2.002416 -0.605302 1.414381 0.493901 0.157221 -6.182407 -0.053776 0.405539 -0.710923 -17.034493 0.121728 0.000000 0.000000 0.000000 0.000000 0.000000 0.000000 -0.000000 0.000000 0.000000 -0.000000 0.000000 0.000000 -0.000000 0.000000 0.000000 -0.000000 0.000000 0.000000 0.000000 0.000000 0.000000 0.000000 0.000000 0.000000 -0.043588 0.711906 77.402113 -0.000000 0.000000 0.000000 5.770540 -13.832121 -0.478298 0.000000 0.000000 0.000000 0.231767 1.748169 77.815270 -1.001644 -0.761047 -0.113137 28.877395 -16.982231 -55.162410 0.000000 0.000000 0.000000
-68.068825 74.652045 312.578556 -0.848202 -0.223089 -77.299514 -0.031136 0.876494 77.298101 -0.000000 0.000000 0.000000 -1.170215 -0.203929 0.688618 0.000000 0.000000 0.000000 4.979811 -2.116050 -0.762945 1.608825 0.267038 0.249222 -8.087646 -1.239423 0.330369 1.350694 -17.670905 0.220763 0.000000 0.000000 0.000000 0.000000 0.000000 0.000000 -0.000000 0.000000 0.000000 -0.000000 0.000000 0.000000 -0.000000 0.000000 0.000000 -0.000000 0.000000 0.000000 0.000000 0.000000 0.000000 0.000000 0.000000 0.000000 -0.148945 1.832441 77.331294 -0.906845 -0.324570 -0.032977 6.156413 -14.777382 -0.462942 0.000000 0.000000 0.000000 0.485067 2.184054 77.832186 -1.227143 -0.782704 -0.167669 29.188959 -18.564557 -56.628756 0.000000 0.000000 0.000000
